<?xml version="1.0" standalone="no"?>
<!DOCTYPE svg PUBLIC "-//W3C//DTD SVG 20010904//EN"
 "http://www.w3.org/TR/2001/REC-SVG-20010904/DTD/svg10.dtd">
<svg version="1.0" xmlns="http://www.w3.org/2000/svg"
 width="150.000000pt" height="150.000000pt" viewBox="0 0 150.000000 150.000000"
 preserveAspectRatio="xMidYMid meet">

<g transform="translate(0.000000,150.000000) scale(0.100000,-0.100000)"
fill="#000000" stroke="none">
<path d="M0 750 l0 -750 750 0 750 0 0 750 0 750 -750 0 -750 0 0 -750z m654
222 c58 -154 94 -238 99 -230 5 7 50 117 101 243 l92 230 114 3 c62 1 117 -1
121 -5 4 -4 19 -87 34 -183 26 -178 54 -362 80 -525 8 -49 17 -118 21 -153 l7
-62 -117 0 c-84 0 -118 3 -121 13 -2 6 -18 122 -35 256 -16 134 -32 246 -35
249 -3 3 -10 -8 -15 -24 -6 -16 -55 -132 -108 -259 l-97 -230 -49 0 -48 0 -94
235 c-113 281 -116 288 -120 275 -4 -10 -74 -493 -74 -507 0 -5 -54 -8 -120
-8 -70 0 -120 4 -120 10 0 5 18 116 40 247 23 131 56 330 75 443 19 113 37
211 40 218 3 9 34 12 122 10 l116 -3 91 -243z"/>
</g>
</svg>
